<?xml version="1.0" encoding="UTF-8" standalone="no"?>
<svg
   xmlns:dc="http://purl.org/dc/elements/1.1/"
   xmlns:cc="http://creativecommons.org/ns#"
   xmlns:rdf="http://www.w3.org/1999/02/22-rdf-syntax-ns#"
   xmlns:svg="http://www.w3.org/2000/svg"
   xmlns="http://www.w3.org/2000/svg"
   viewBox="0 0 82.319069 40.3144"
   height="40.3144"
   width="82.319069"
   xml:space="preserve"
   id="svg2"
   version="1.1"><metadata
     id="metadata8"><rdf:RDF><cc:Work
         rdf:about=""><dc:format>image/svg+xml</dc:format><dc:type
           rdf:resource="http://purl.org/dc/dcmitype/StillImage" /></cc:Work></rdf:RDF></metadata><defs
     id="defs6"><clipPath
       id="clipPath18"
       clipPathUnits="userSpaceOnUse"><path
         id="path16"
         d="M 0,30.236 H 61.739 V 0 H 0 Z" /></clipPath><clipPath
       id="clipPath50"
       clipPathUnits="userSpaceOnUse"><path
         id="path48"
         d="M 24.228,29.4727 H 36.876 V 13.0615 H 24.228 Z" /></clipPath><clipPath
       id="clipPath90"
       clipPathUnits="userSpaceOnUse"><path
         id="path88"
         d="M 24.4292,29.8755 H 37.0771 V 13.4648 H 24.4292 Z" /></clipPath></defs><g
     transform="matrix(1.3333333,0,0,-1.3333333,0,40.3144)"
     id="g10"><g
       id="g12"><g
         clip-path="url(#clipPath18)"
         id="g14"><g
           transform="translate(34.9873,0.7544)"
           id="g20"><path
             id="path22"
             style="fill:#020202;fill-opacity:1;fill-rule:evenodd;stroke:none"
             d="m 0,0 c -4.362,0 -8.724,-0.049 -13.085,0.015 -3.651,0.054 -6.544,2.187 -7.626,5.452 -1.03,3.107 -0.003,6.516 2.601,8.456 1.921,1.431 4.157,1.77 6.485,1.726 1.073,-0.019 2.155,0.051 3.218,-0.063 1.305,-0.139 2.121,-0.946 2.046,-2.284 -0.073,-1.294 -0.822,-2.088 -2.218,-2.084 -1.409,0.003 -2.818,0.043 -4.227,-0.004 -2.229,-0.074 -3.951,-1.608 -3.958,-3.458 -0.006,-1.717 1.453,-3.15 3.69,-3.227 3.686,-0.129 7.379,-0.063 11.069,-0.07 4.362,-0.007 8.724,-0.016 13.084,0.003 0.867,0.004 1.745,0.063 2.599,0.215 1.574,0.283 2.482,1.321 2.675,2.869 0.2,1.637 -0.819,2.606 -2.143,3.295 -0.801,0.415 -1.684,0.378 -2.559,0.376 -3.489,-0.009 -6.979,0.056 -10.465,-0.032 -1.387,-0.036 -2.277,0.515 -3.008,1.584 -2.645,3.865 -5.32,7.708 -7.949,11.582 -0.862,1.268 -1.644,2.711 0.049,3.857 1.627,1.101 2.698,0.074 3.613,-1.292 2.2,-3.286 4.509,-6.499 6.653,-9.819 0.754,-1.168 1.531,-1.508 2.874,-1.504 9.163,0.026 1.574,0.004 8.925,0.03 5.041,0.017 8.338,-3.227 8.344,-7.658 C 20.694,3.226 17.31,0.008 12.279,-0.007 8.186,-0.018 4.093,-0.009 0,-0.009 Z" /></g><g
           transform="translate(0.0225,6.0737)"
           id="g24"><path
             id="path26"
             style="fill:#020202;fill-opacity:1;fill-rule:evenodd;stroke:none"
             d="m 0,0 c 0,0.938 -0.056,1.879 0.01,2.813 0.272,3.831 2.643,6.447 6.397,7.193 1.997,0.397 4.005,0.303 6.009,0.211 C 13.918,10.149 14.728,9.34 14.635,7.734 14.546,6.223 13.619,5.863 12.325,5.882 11.053,5.901 9.777,5.924 8.507,5.875 5.797,5.768 4.357,4.273 4.316,1.571 4.292,0.03 4.315,-1.512 4.263,-3.05 4.218,-4.343 3.61,-5.264 2.224,-5.297 0.74,-5.333 0.068,-4.404 0.003,-3.013 -0.044,-2.01 -0.006,-1.004 -0.006,0 Z" /></g><g
           transform="translate(60.6543,21.2837)"
           id="g28"><path
             id="path30"
             style="fill:#020202;fill-opacity:1;fill-rule:evenodd;stroke:none"
             d="m 0,0 c 0,-1.111 -0.899,-2.013 -2.01,-2.013 h -0.006 c -1.108,0 -2.011,0.902 -2.011,2.013 0,1.112 0.903,2.014 2.011,2.014 H -2.01 C -0.899,2.014 0,1.112 0,0" /></g><g
           transform="translate(60.6807,2.9053)"
           id="g32"><path
             id="path34"
             style="fill:#020202;fill-opacity:1;fill-rule:evenodd;stroke:none"
             d="m 0,0 c 0,-1.121 -0.91,-2.031 -2.031,-2.031 -1.121,0 -2.031,0.91 -2.031,2.031 v 11.449 c 0,1.122 0.91,2.031 2.031,2.031 C -0.91,13.48 0,12.571 0,11.449 Z" /></g><g
           transform="translate(31.6641,8.8457)"
           id="g36"><path
             id="path38"
             style="fill:#020202;fill-opacity:1;fill-rule:evenodd;stroke:none"
             d="m 0,0 c 0,-1.111 -0.9,-2.013 -2.011,-2.013 h -0.005 c -1.11,0 -2.011,0.902 -2.011,2.013 0,1.112 0.901,2.013 2.011,2.013 h 0.005 C -0.9,2.013 0,1.112 0,0" /></g><g
           transform="translate(41.9907,8.7881)"
           id="g40"><path
             id="path42"
             style="fill:#020202;fill-opacity:1;fill-rule:evenodd;stroke:none"
             d="m 0,0 c 0,-1.111 -0.9,-2.013 -2.01,-2.013 h -0.005 c -1.11,0 -2.01,0.902 -2.01,2.013 0,1.112 0.9,2.013 2.01,2.013 H -2.01 C -0.9,2.013 0,1.112 0,0" /></g><g
           id="g44"><g
             id="g46" /><g
             id="g58"><g
               style="opacity:0.60000598"
               id="g56"
               clip-path="url(#clipPath50)"><g
                 id="g54"
                 transform="translate(36.4634,16.5908)"><path
                   id="path52"
                   style="fill:#000000;fill-opacity:1;fill-rule:evenodd;stroke:none"
                   d="m 0,0 c 0.716,-1.042 0.476,-2.452 -0.536,-3.147 -1.012,-0.696 -2.415,-0.415 -3.131,0.63 l -8.155,11.87 c -0.717,1.043 -0.477,2.452 0.534,3.147 1.013,0.696 2.414,0.414 3.131,-0.629 z" /></g></g></g></g><g
           transform="translate(35.1885,1.1567)"
           id="g60"><path
             id="path62"
             style="fill:#ffffff;fill-opacity:1;fill-rule:evenodd;stroke:none"
             d="m 0,0 c -4.362,0 -8.725,-0.048 -13.085,0.015 -3.651,0.054 -6.544,2.187 -7.626,5.452 -1.03,3.107 -0.003,6.517 2.601,8.456 1.921,1.432 4.157,1.77 6.485,1.726 1.073,-0.019 2.156,0.052 3.217,-0.062 1.306,-0.14 2.122,-0.946 2.047,-2.285 -0.072,-1.294 -0.821,-2.087 -2.218,-2.084 -1.409,0.003 -2.819,0.043 -4.226,-0.004 -2.23,-0.074 -3.952,-1.608 -3.959,-3.457 -0.006,-1.717 1.454,-3.15 3.69,-3.228 3.686,-0.13 7.38,-0.063 11.069,-0.069 4.363,-0.008 8.724,-0.017 13.084,0.002 0.868,0.004 1.745,0.063 2.599,0.215 1.574,0.284 2.483,1.322 2.674,2.869 0.201,1.637 -0.818,2.606 -2.142,3.295 -0.799,0.415 -1.684,0.379 -2.559,0.376 -3.49,-0.009 -6.979,0.056 -10.465,-0.032 -1.387,-0.036 -2.277,0.515 -3.009,1.585 -2.644,3.864 -5.319,7.707 -7.948,11.581 -0.862,1.268 -1.644,2.711 0.049,3.857 1.627,1.101 2.698,0.074 3.613,-1.292 2.201,-3.286 4.51,-6.499 6.653,-9.819 0.755,-1.167 1.53,-1.508 2.874,-1.504 9.163,0.027 1.574,0.005 8.925,0.03 5.041,0.017 8.338,-3.227 8.344,-7.658 C 20.694,3.226 17.312,0.008 12.279,-0.006 8.186,-0.018 4.093,-0.009 0,-0.009 Z" /></g><g
           transform="translate(0.2241,6.4766)"
           id="g64"><path
             id="path66"
             style="fill:#ffffff;fill-opacity:1;fill-rule:evenodd;stroke:none"
             d="m 0,0 c 0,0.938 -0.056,1.879 0.009,2.813 0.273,3.83 2.643,6.447 6.397,7.192 1.998,0.398 4.006,0.304 6.009,0.212 1.502,-0.068 2.313,-0.878 2.219,-2.483 C 14.545,6.223 13.619,5.863 12.325,5.882 11.053,5.901 9.777,5.924 8.506,5.874 5.797,5.768 4.357,4.273 4.315,1.57 4.291,0.03 4.314,-1.512 4.262,-3.05 4.218,-4.344 3.61,-5.265 2.224,-5.298 0.739,-5.333 0.068,-4.404 0.002,-3.013 -0.044,-2.011 -0.007,-1.004 -0.007,0 Z" /></g><g
           transform="translate(60.8555,21.6865)"
           id="g68"><path
             id="path70"
             style="fill:#ffffff;fill-opacity:1;fill-rule:evenodd;stroke:none"
             d="m 0,0 c 0,-1.112 -0.899,-2.013 -2.011,-2.013 h -0.005 c -1.109,0 -2.009,0.901 -2.009,2.013 0,1.112 0.9,2.013 2.009,2.013 h 0.005 C -0.899,2.013 0,1.112 0,0" /></g><g
           transform="translate(60.8818,3.3081)"
           id="g72"><path
             id="path74"
             style="fill:#ffffff;fill-opacity:1;fill-rule:evenodd;stroke:none"
             d="m 0,0 c 0,-1.121 -0.91,-2.031 -2.031,-2.031 -1.121,0 -2.031,0.91 -2.031,2.031 v 11.449 c 0,1.122 0.91,2.031 2.031,2.031 C -0.91,13.48 0,12.571 0,11.449 Z" /></g><g
           transform="translate(31.8652,9.2485)"
           id="g76"><path
             id="path78"
             style="fill:#ffffff;fill-opacity:1;fill-rule:evenodd;stroke:none"
             d="m 0,0 c 0,-1.111 -0.9,-2.014 -2.011,-2.014 h -0.005 c -1.11,0 -2.01,0.903 -2.01,2.014 0,1.111 0.9,2.013 2.01,2.013 h 0.005 C -0.9,2.013 0,1.111 0,0" /></g><g
           transform="translate(42.1919,9.1904)"
           id="g80"><path
             id="path82"
             style="fill:#ffffff;fill-opacity:1;fill-rule:evenodd;stroke:none"
             d="m 0,0 c 0,-1.111 -0.9,-2.012 -2.011,-2.012 h -0.004 c -1.11,0 -2.011,0.901 -2.011,2.012 0,1.112 0.901,2.013 2.011,2.013 h 0.004 C -0.9,2.013 0,1.112 0,0" /></g><g
           id="g84"><g
             id="g86" /><g
             id="g98"><g
               style="opacity:0.60000598"
               id="g96"
               clip-path="url(#clipPath90)"><g
                 id="g94"
                 transform="translate(36.6646,16.9937)"><path
                   id="path92"
                   style="fill:#ffffff;fill-opacity:1;fill-rule:evenodd;stroke:none"
                   d="m 0,0 c 0.716,-1.043 0.476,-2.452 -0.536,-3.147 -1.012,-0.696 -2.415,-0.415 -3.131,0.63 l -8.155,11.869 c -0.717,1.044 -0.477,2.453 0.534,3.148 1.013,0.696 2.414,0.414 3.131,-0.629 z" /></g></g></g></g></g></g></g></svg>