<?xml version="1.0" encoding="UTF-8" standalone="no"?>
<svg
   xmlns:dc="http://purl.org/dc/elements/1.1/"
   xmlns:cc="http://creativecommons.org/ns#"
   xmlns:rdf="http://www.w3.org/1999/02/22-rdf-syntax-ns#"
   xmlns:svg="http://www.w3.org/2000/svg"
   xmlns="http://www.w3.org/2000/svg"
   viewBox="0 0 114.66667 54.666668"
   height="54.666668"
   width="114.66667"
   xml:space="preserve"
   id="svg2"
   version="1.1"><metadata
     id="metadata8"><rdf:RDF><cc:Work
         rdf:about=""><dc:format>image/svg+xml</dc:format><dc:type
           rdf:resource="http://purl.org/dc/dcmitype/StillImage" /></cc:Work></rdf:RDF></metadata><defs
     id="defs6"><clipPath
       id="clipPath18"
       clipPathUnits="userSpaceOnUse"><path
         id="path16"
         d="M 0,41 H 86 V 0 H 0 Z" /></clipPath><clipPath
       id="clipPath50"
       clipPathUnits="userSpaceOnUse"><path
         id="path48"
         d="M 34.0815,40.4341 H 51.873 V 17.3481 H 34.0815 Z" /></clipPath><clipPath
       id="clipPath90"
       clipPathUnits="userSpaceOnUse"><path
         id="path88"
         d="M 34.3647,41.0005 H 52.1562 V 17.9146 H 34.3647 Z" /></clipPath></defs><g
     transform="matrix(1.3333333,0,0,-1.3333333,0,54.666667)"
     id="g10"><g
       id="g12"><g
         clip-path="url(#clipPath18)"
         id="g14"><g
           transform="translate(49.2168,0.0352)"
           id="g20"><path
             id="path22"
             style="fill:#020202;fill-opacity:1;fill-rule:evenodd;stroke:none"
             d="m 0,0 c -6.137,0 -12.273,-0.068 -18.407,0.021 -5.136,0.077 -9.206,3.076 -10.728,7.669 -1.448,4.371 -0.004,9.167 3.659,11.896 2.703,2.014 5.849,2.49 9.122,2.428 1.511,-0.027 3.033,0.072 4.527,-0.088 1.836,-0.196 2.985,-1.331 2.878,-3.214 -0.101,-1.819 -1.155,-2.937 -3.119,-2.932 -1.982,0.005 -3.966,0.061 -5.946,-0.005 -3.136,-0.105 -5.558,-2.262 -5.568,-4.863 -0.009,-2.416 2.044,-4.432 5.191,-4.541 5.184,-0.182 10.38,-0.089 15.57,-0.098 6.137,-0.011 12.272,-0.023 18.407,0.003 1.221,0.006 2.455,0.089 3.654,0.304 2.217,0.398 3.494,1.858 3.764,4.035 0.283,2.302 -1.15,3.666 -3.014,4.635 -1.125,0.584 -2.369,0.532 -3.599,0.529 -4.909,-0.013 -9.819,0.079 -14.723,-0.045 -1.951,-0.05 -3.203,0.725 -4.232,2.229 -3.72,5.436 -7.483,10.842 -11.182,16.291 -1.212,1.784 -2.312,3.815 0.07,5.426 2.288,1.549 3.795,0.105 5.082,-1.818 3.095,-4.621 6.344,-9.14 9.36,-13.811 1.06,-1.643 2.152,-2.121 4.043,-2.116 12.89,0.037 2.212,0.006 12.554,0.042 7.092,0.024 11.731,-4.54 11.741,-10.772 C 29.113,4.538 24.352,0.011 17.273,-0.009 11.516,-0.025 5.758,-0.012 0,-0.012 Z" /></g><g
           transform="translate(0.0312,7.5186)"
           id="g24"><path
             id="path26"
             style="fill:#020202;fill-opacity:1;fill-rule:evenodd;stroke:none"
             d="m 0,0 c 0,1.32 -0.079,2.644 0.014,3.957 0.382,5.388 3.717,9.069 8.998,10.118 2.81,0.559 5.635,0.427 8.453,0.298 2.113,-0.097 3.253,-1.235 3.121,-3.494 C 20.462,8.753 19.158,8.247 17.338,8.274 15.548,8.301 13.754,8.333 11.967,8.263 8.155,8.114 6.13,6.011 6.071,2.209 6.037,0.042 6.069,-2.127 5.996,-4.291 5.933,-6.11 5.078,-7.406 3.128,-7.452 1.041,-7.502 0.095,-6.196 0.004,-4.239 -0.062,-2.829 -0.009,-1.413 -0.009,0 Z" /></g><g
           transform="translate(85.3242,28.9146)"
           id="g28"><path
             id="path30"
             style="fill:#020202;fill-opacity:1;fill-rule:evenodd;stroke:none"
             d="m 0,0 c 0,-1.563 -1.266,-2.832 -2.828,-2.832 h -0.008 c -1.56,0 -2.828,1.269 -2.828,2.832 0,1.564 1.268,2.832 2.828,2.832 h 0.008 C -1.266,2.832 0,1.564 0,0" /></g><g
           transform="translate(85.3613,3.0615)"
           id="g32"><path
             id="path34"
             style="fill:#020202;fill-opacity:1;fill-rule:evenodd;stroke:none"
             d="m 0,0 c 0,-1.577 -1.281,-2.857 -2.857,-2.857 -1.579,0 -2.858,1.28 -2.858,2.857 v 16.105 c 0,1.578 1.279,2.857 2.858,2.857 1.576,0 2.857,-1.279 2.857,-2.857 z" /></g><g
           transform="translate(44.5415,11.4175)"
           id="g36"><path
             id="path38"
             style="fill:#020202;fill-opacity:1;fill-rule:evenodd;stroke:none"
             d="m 0,0 c 0,-1.563 -1.267,-2.832 -2.829,-2.832 h -0.006 c -1.562,0 -2.829,1.269 -2.829,2.832 0,1.564 1.267,2.832 2.829,2.832 h 0.006 C -1.267,2.832 0,1.564 0,0" /></g><g
           transform="translate(59.0684,11.3364)"
           id="g40"><path
             id="path42"
             style="fill:#020202;fill-opacity:1;fill-rule:evenodd;stroke:none"
             d="m 0,0 c 0,-1.563 -1.266,-2.832 -2.828,-2.832 h -0.006 c -1.562,0 -2.828,1.269 -2.828,2.832 0,1.564 1.266,2.832 2.828,2.832 h 0.006 C -1.266,2.832 0,1.564 0,0" /></g><g
           id="g44"><g
             id="g46" /><g
             id="g58"><g
               style="opacity:0.60000598"
               id="g56"
               clip-path="url(#clipPath50)"><g
                 id="g54"
                 transform="translate(51.293,22.313)"><path
                   id="path52"
                   style="fill:#000000;fill-opacity:1;fill-rule:evenodd;stroke:none"
                   d="M 0,0 C 1.008,-1.467 0.67,-3.449 -0.754,-4.428 -2.178,-5.406 -4.15,-5.01 -5.158,-3.541 l -11.473,16.697 c -1.008,1.467 -0.67,3.449 0.752,4.427 1.425,0.98 3.396,0.583 4.405,-0.884 z" /></g></g></g></g><g
           transform="translate(49.5,0.6016)"
           id="g60"><path
             id="path62"
             style="fill:#ffffff;fill-opacity:1;fill-rule:evenodd;stroke:none"
             d="m 0,0 c -6.137,0 -12.273,-0.068 -18.407,0.021 -5.136,0.076 -9.206,3.076 -10.728,7.669 -1.448,4.371 -0.004,9.167 3.659,11.896 2.702,2.014 5.849,2.49 9.122,2.428 1.511,-0.027 3.033,0.072 4.527,-0.088 1.836,-0.196 2.985,-1.331 2.878,-3.214 -0.101,-1.819 -1.155,-2.937 -3.119,-2.932 -1.982,0.005 -3.966,0.061 -5.946,-0.005 -3.136,-0.105 -5.558,-2.262 -5.569,-4.863 -0.008,-2.416 2.045,-4.432 5.192,-4.541 5.184,-0.182 10.38,-0.089 15.57,-0.098 6.137,-0.011 12.272,-0.023 18.407,0.003 1.221,0.006 2.455,0.089 3.654,0.304 2.217,0.398 3.494,1.858 3.764,4.035 0.283,2.302 -1.15,3.666 -3.014,4.635 -1.125,0.584 -2.369,0.532 -3.599,0.529 -4.909,-0.013 -9.819,0.079 -14.723,-0.045 -1.951,-0.05 -3.203,0.725 -4.232,2.229 -3.72,5.436 -7.483,10.842 -11.182,16.291 -1.212,1.784 -2.312,3.815 0.07,5.426 2.288,1.549 3.795,0.105 5.082,-1.818 3.095,-4.621 6.344,-9.141 9.36,-13.811 1.06,-1.643 2.152,-2.122 4.043,-2.116 12.89,0.037 2.212,0.006 12.554,0.042 7.092,0.024 11.731,-4.54 11.741,-10.772 C 29.113,4.537 24.352,0.011 17.273,-0.009 11.516,-0.025 5.758,-0.012 0,-0.012 Z" /></g><g
           transform="translate(0.3145,8.085)"
           id="g64"><path
             id="path66"
             style="fill:#ffffff;fill-opacity:1;fill-rule:evenodd;stroke:none"
             d="m 0,0 c 0,1.32 -0.079,2.644 0.014,3.957 0.382,5.388 3.717,9.069 8.998,10.118 2.81,0.559 5.635,0.427 8.453,0.298 2.113,-0.097 3.253,-1.235 3.121,-3.494 C 20.461,8.753 19.157,8.247 17.338,8.274 15.548,8.301 13.754,8.333 11.967,8.263 8.155,8.114 6.13,6.011 6.071,2.209 6.037,0.042 6.069,-2.127 5.996,-4.291 5.933,-6.11 5.078,-7.406 3.128,-7.452 1.041,-7.502 0.095,-6.196 0.004,-4.239 -0.062,-2.829 -0.009,-1.413 -0.009,0 Z" /></g><g
           transform="translate(85.6074,29.481)"
           id="g68"><path
             id="path70"
             style="fill:#ffffff;fill-opacity:1;fill-rule:evenodd;stroke:none"
             d="m 0,0 c 0,-1.563 -1.266,-2.832 -2.828,-2.832 h -0.008 c -1.56,0 -2.828,1.269 -2.828,2.832 0,1.564 1.268,2.832 2.828,2.832 h 0.008 C -1.266,2.832 0,1.564 0,0" /></g><g
           transform="translate(85.6445,3.6279)"
           id="g72"><path
             id="path74"
             style="fill:#ffffff;fill-opacity:1;fill-rule:evenodd;stroke:none"
             d="m 0,0 c 0,-1.577 -1.281,-2.857 -2.857,-2.857 -1.579,0 -2.858,1.28 -2.858,2.857 v 16.105 c 0,1.578 1.279,2.857 2.858,2.857 1.576,0 2.857,-1.279 2.857,-2.857 z" /></g><g
           transform="translate(44.8247,11.9839)"
           id="g76"><path
             id="path78"
             style="fill:#ffffff;fill-opacity:1;fill-rule:evenodd;stroke:none"
             d="m 0,0 c 0,-1.563 -1.267,-2.832 -2.829,-2.832 h -0.006 c -1.562,0 -2.829,1.269 -2.829,2.832 0,1.564 1.267,2.832 2.829,2.832 h 0.006 C -1.267,2.832 0,1.564 0,0" /></g><g
           transform="translate(59.3516,11.9028)"
           id="g80"><path
             id="path82"
             style="fill:#ffffff;fill-opacity:1;fill-rule:evenodd;stroke:none"
             d="m 0,0 c 0,-1.563 -1.266,-2.832 -2.828,-2.832 h -0.006 c -1.562,0 -2.83,1.269 -2.83,2.832 0,1.564 1.268,2.832 2.83,2.832 h 0.006 C -1.266,2.832 0,1.564 0,0" /></g><g
           id="g84"><g
             id="g86" /><g
             id="g98"><g
               style="opacity:0.60000598"
               id="g96"
               clip-path="url(#clipPath90)"><g
                 id="g94"
                 transform="translate(51.5762,22.8794)"><path
                   id="path92"
                   style="fill:#ffffff;fill-opacity:1;fill-rule:evenodd;stroke:none"
                   d="M 0,0 C 1.008,-1.467 0.67,-3.449 -0.754,-4.428 -2.178,-5.406 -4.15,-5.01 -5.158,-3.541 l -11.473,16.697 c -1.008,1.467 -0.67,3.449 0.752,4.427 1.425,0.98 3.396,0.583 4.405,-0.884 z" /></g></g></g></g></g></g></g></svg>